<svg xmlns="http://www.w3.org/2000/svg" xmlns:xlink="http://www.w3.org/1999/xlink"><defs><style>
    .sprite-symbol-usage {display: none;}
    .sprite-symbol-usage:target {display: inline;}
  </style><symbol viewBox="0 0 96 96" id="arrow-left"><path d="M13.4 51c-.8-.7-1.4-1.8-1.4-3s.5-2.3 1.4-3l25.5-25.5c1.5-1.5 3.9-1.5 5.5 0 1.5 1.5 1.5 3.9 0 5.5L25.2 44.1h42.1c2.1 0 3.9 1.7 3.9 3.9s-1.7 3.9-3.9 3.9H25.2L44.3 71c1.5 1.5 1.5 3.9 0 5.5-1.5 1.5-3.9 1.5-5.5 0L13.4 51zm66.7-6.9c2.1 0 3.9 1.7 3.9 3.9 0 2.1-1.7 3.9-3.9 3.9-2.1 0-3.9-1.7-3.9-3.9.1-2.1 1.8-3.9 3.9-3.9z" /></symbol><symbol viewBox="0 0 96 96" id="arrow-right"><path d="M82.6 45c.8.7 1.4 1.8 1.4 3s-.5 2.3-1.4 3L57.1 76.4c-1.5 1.5-3.9 1.5-5.5 0s-1.5-3.9 0-5.5l19.1-19.1h-42c-2.1 0-3.9-1.7-3.9-3.9s1.7-3.9 3.9-3.9h42.1L51.7 25c-1.5-1.5-1.5-3.9 0-5.5 1.5-1.5 3.9-1.5 5.5 0L82.6 45zm-66.7 6.9c-2.1 0-3.9-1.7-3.9-3.9s1.7-3.9 3.9-3.9 3.9 1.7 3.9 3.9-1.8 3.9-3.9 3.9z" /></symbol><symbol viewBox="0 0 96 96" id="arrow-up"><path d="M45 13.4c.7-.8 1.8-1.4 3-1.4s2.3.5 3 1.4l25.5 25.5c1.5 1.5 1.5 3.9 0 5.5s-3.9 1.5-5.5 0L51.9 25.2v42.1c0 2.1-1.7 3.9-3.9 3.9s-3.9-1.7-3.9-3.9V25.2L25 44.3c-1.5 1.5-3.9 1.5-5.5 0-1.5-1.5-1.5-3.9 0-5.5L45 13.4zm6.9 66.7c0 2.1-1.7 3.9-3.9 3.9s-3.9-1.7-3.9-3.9c0-2.1 1.7-3.9 3.9-3.9s3.9 1.8 3.9 3.9z" /></symbol><symbol viewBox="0 0 24 24" id="barbecue"><path d="M16.454.22a.75.75 0 010 1.06 1.254 1.254 0 000 1.775 2.756 2.756 0 010 3.896.75.75 0 11-1.06-1.061 1.256 1.256 0 000-1.774m0 0a2.754 2.754 0 010-3.896.75.75 0 011.06 0m-4 0a.75.75 0 010 1.06 1.254 1.254 0 000 1.775 2.756 2.756 0 010 3.896.75.75 0 11-1.06-1.061 1.256 1.256 0 000-1.774m0 0a2.754 2.754 0 010-3.896.75.75 0 011.06 0m-4 0a.75.75 0 010 1.06 1.254 1.254 0 000 1.775 2.755 2.755 0 010 3.896.75.75 0 11-1.06-1.061 1.255 1.255 0 000-1.774m0 0a2.755 2.755 0 010-3.896.75.75 0 011.06 0M4.72 8.47a.75.75 0 01.53-.22h13.5a.75.75 0 01.75.75 7.5 7.5 0 01-15 0 .75.75 0 01.22-.53zm1.327 1.28a6 6 0 0011.906 0H6.047z" /><path d="M8.61 14.342a.75.75 0 01.298 1.017l-4.5 8.25a.75.75 0 11-1.316-.718l4.5-8.25a.75.75 0 011.017-.3zm6.78 0a.75.75 0 011.018.299l4.5 8.25a.75.75 0 11-1.316.718l-4.5-8.25a.75.75 0 01.299-1.017zM3 9a.75.75 0 01.75-.75h1.5a.75.75 0 010 1.5h-1.5A.75.75 0 013 9zm15 0a.75.75 0 01.75-.75h1.5a.75.75 0 010 1.5h-1.5A.75.75 0 0118 9z" /><path d="M5.25 19.5a.75.75 0 01.75-.75h12a.75.75 0 010 1.5H6a.75.75 0 01-.75-.75z" /></symbol><symbol viewBox="0 0 24 24" id="bassinet"><path d="M16.946 18.81a.75.75 0 01.983.397l.911 2.143a.75.75 0 11-1.38.586l-.911-2.143a.75.75 0 01.397-.983zm-9.913 0a.75.75 0 01.396.983l-.91 2.143a.75.75 0 11-1.381-.586l.91-2.143a.75.75 0 01.985-.397zM11.989 0a.75.75 0 01.75.75v8.571a.75.75 0 01-1.5 0V.75a.75.75 0 01.75-.75z" /><path d="M2.668 9.321a.75.75 0 01.75-.75H20.56a.75.75 0 010 1.5H3.418a.75.75 0 01-.75-.75zm-.093 10.233a.75.75 0 011.057-.093 13.011 13.011 0 0016.714 0 .75.75 0 11.964 1.15 14.51 14.51 0 01-18.642 0 .75.75 0 01-.093-1.057z" /><path d="M11.24.75a.75.75 0 01.75-.75 9.321 9.321 0 11-9.322 9.321.75.75 0 011.5 0A7.822 7.822 0 1011.99 1.5a.75.75 0 01-.75-.75z" /></symbol><symbol viewBox="0 0 16 16" id="bullet"><path d="M7.282 6h1.436c.446 0 .607.046.77.134a.906.906 0 01.378.378c.088.163.134.324.134.77v1.436c0 .446-.046.607-.134.77a.909.909 0 01-.378.378c-.163.088-.324.134-.77.134H7.282c-.446 0-.607-.046-.77-.134a.909.909 0 01-.378-.378C6.046 9.325 6 9.164 6 8.718V7.282c0-.446.046-.607.134-.77a.909.909 0 01.378-.378c.163-.088.324-.134.77-.134z" /></symbol><symbol viewBox="0 0 24 24" id="cart"><path d="M7.46 14.46A1.71 1.71 0 015.82 13L4.49 3.4a.19.19 0 00-.19-.15H1.77a.75.75 0 010-1.5h2.57A1.73 1.73 0 016 3.17l.16 1.19h15.41c.13-.018.26-.018.39 0a1.38 1.38 0 011 1.69l-1.46 7a1.81 1.81 0 01-1.66 1.38l-12.38.03zm-1.11-8.6l1 7a.21.21 0 00.19.14h12.23a.27.27 0 00.23-.22l1.45-6.89-15.1-.03zM9 22.25A3.25 3.25 0 1112.25 19 3.26 3.26 0 019 22.25zm0-5A1.75 1.75 0 1010.75 19 1.76 1.76 0 009 17.25zm7.194 4.452A3.25 3.25 0 0018 22.25 3.26 3.26 0 0021.25 19a3.25 3.25 0 10-5.056 2.702zm.834-4.157A1.75 1.75 0 0118 17.25 1.76 1.76 0 0119.75 19a1.75 1.75 0 11-2.722-1.455z" /></symbol><symbol viewBox="0 0 96 96" id="chevron-down"><path d="M89.8 21c1.1.2 2.1.5 3.1 1.1 2.4 1.6 3.6 4.6 2.9 7.4-.3 1.1-.8 2-1.5 2.9-13.4 14.4-27.4 28.3-41.8 41.8-.5.4-1 .8-1.6 1a7 7 0 01-5.5.2c-.7-.3-1.4-.7-2-1.2C29.1 60.7 15.1 46.8 1.7 32.4 1 31.5.5 30.6.2 29.5c-.2-.9-.3-1.9-.1-2.8.6-3.7 4.2-6.2 7.9-5.6 1.4.2 2.6.9 3.7 1.9L48 59.3c12.2-12.2 24-24.8 36.6-36.6.4-.3.4-.3.7-.6 1.5-.8 2.9-1.2 4.5-1.1z" /></symbol><symbol viewBox="0 0 96 96" id="chevron-left"><path d="M75.48 89.809c-.2 1.099-.5 2.098-1.1 3.096-1.6 2.398-4.6 3.596-7.4 2.897-1.1-.3-2-.799-2.9-1.498-14.4-13.485-28.4-27.37-41.8-41.754-.4-.499-.8-.998-1-1.598a6.986 6.986 0 01-.2-5.494c.3-.699.7-1.398 1.2-1.997 13.5-14.384 27.4-28.369 41.8-41.754.9-.7 1.8-1.199 2.9-1.498.9-.2 1.9-.3 2.8-.1 3.7.6 6.2 4.195 5.6 7.891-.2 1.399-.9 2.597-1.9 3.696l-36.2 36.36c12.2 12.186 24.8 23.973 36.6 36.559.3.4.3.4.6.699.8 1.498 1.1 2.897 1 4.495z" /></symbol><symbol viewBox="0 0 96 96" id="chevron-right"><path d="M20.63 89.809c.2 1.099.5 2.098 1.1 3.096 1.6 2.398 4.6 3.596 7.4 2.897 1.1-.3 2-.799 2.9-1.498 14.4-13.485 28.4-27.37 41.8-41.754.4-.499.8-.998 1-1.598.8-1.698.9-3.696.2-5.494-.3-.699-.7-1.398-1.2-1.997-13.5-14.384-27.4-28.369-41.8-41.754-.9-.7-1.8-1.199-2.9-1.498-.9-.2-1.9-.3-2.8-.1-3.7.6-6.2 4.195-5.6 7.891.2 1.399.9 2.597 1.9 3.696l36.2 36.36c-12.2 12.186-24.8 23.973-36.6 36.559-.3.4-.3.4-.6.699-.8 1.498-1.1 2.897-1 4.495z" /></symbol><symbol viewBox="0 0 96 96" id="chevron-up"><path d="M6.2 75.8c-1.1-.2-2.1-.5-3.1-1.1C.7 73.1-.5 70.1.2 67.3c.3-1.1.8-2 1.5-2.9C15.2 50 29.1 36 43.5 22.6c.5-.4 1-.8 1.6-1a7 7 0 015.5-.2c.7.3 1.4.7 2 1.2C67 36.1 81 50 94.4 64.4c.7.9 1.2 1.8 1.5 2.9.2.9.3 1.9.1 2.8-.6 3.7-4.2 6.2-7.9 5.6-1.4-.2-2.6-.9-3.7-1.9L48 37.6C35.8 49.8 24 62.4 11.4 74.2c-.4.3-.4.3-.7.6-1.5.8-2.9 1.1-4.5 1z" /></symbol><symbol viewBox="0 0 16 16" id="circle-plus"><path d="M8 1a7 7 0 110 14A7 7 0 018 1zm0 1a6 6 0 100 12A6 6 0 008 2zm0 3a.5.5 0 01.5.5v2h2a.5.5 0 110 1h-2v2a.5.5 0 11-1 0v-2h-2a.5.5 0 010-1h2v-2A.5.5 0 018 5z" /></symbol><symbol viewBox="0 0 96 96" id="color"><path d="M45 6a3 3 0 013 3v60c0 11.598-9.402 21-21 21S6 80.598 6 69V9a3 3 0 013-3zm-3 6H12v57c0 7.953 6.19 14.46 14.014 14.968L27 84c8.284 0 15-6.716 15-15zm38.104 25.516l.304.388 9.393 14.464a2.731 2.731 0 01-.415 3.473l-.387.304-38.815 25.208a28.857 28.857 0 003.238-8.608l30.313-19.697-7.906-12.17a2.731 2.731 0 01.415-3.473l.387-.304a2.731 2.731 0 013.473.415zm-22.046-27.15l.486.195 16.88 8.6a2.905 2.905 0 011.465 3.42l-.195.487L53.99 67.624l.007-12.825 16.197-31.783-14.288-7.28a2.905 2.905 0 01-1.465-3.42l.195-.486a2.905 2.905 0 013.42-1.465z" /></symbol><symbol viewBox="0 0 96 96" id="couch"><path d="M87.7 39V28.1c0-5.6-4.5-10.1-10.1-10.1H39.7c-1.2 0-2.1.9-2.1 2.1s.9 2.1 2.1 2.1h37.9c3.3 0 5.9 2.7 5.9 5.9v10.7h-4.1c-.1 0-.2 0-.3.1h-.2c-.1 0-.2 0-.3.1h-.2c-.1 0-.2.1-.3.1-.1 0-.1 0-.2.1-.1 0-.2.1-.3.1-.1 0-.1 0-.2.1-.1 0-.2.1-.4.1h-.1c-.1.1-.3.1-.4.2 0 0-.1 0-.1.1-.1 0-.2.1-.3.1-.1 0-.1.1-.2.1s-.2.1-.2.1c-.1 0-.1.1-.2.1s-.2.1-.2.1c-.1 0-.1.1-.2.1l-.2.2c-.1 0-.1.1-.2.1l-.2.2-.1.1-.2.2-.1.1c-.1.1-.2.2-.3.2l-.1.1-.3.3-.1.1c-.1.1-.2.2-.2.3l-.1.1c-.1.1-.1.2-.2.2 0 .1-.1.1-.1.2l-.2.2c0 .1-.1.1-.1.2-.1.1-.1.2-.1.2 0 .1-.1.1-.1.2s-.1.2-.1.2c0 .1-.1.1-.1.2s-.1.2-.1.3c0 .1-.1.1-.1.2s-.1.2-.1.3c0 0 0 .1-.1.1-.1.1-.1.3-.2.4v.1c0 .1-.1.2-.1.3v.2c0 .1-.1.2-.1.3v.2c0 .1 0 .2-.1.3v.3H24.9v-.3c0-.1 0-.2-.1-.3v-.2c0-.1-.1-.2-.1-.3v-.2c0-.1-.1-.2-.1-.3v-.1c-.1-.1-.1-.3-.2-.4 0 0 0-.1-.1-.1 0-.1-.1-.2-.1-.3 0-.1-.1-.1-.1-.2s-.1-.2-.1-.3c0-.1-.1-.1-.1-.2s-.1-.2-.1-.2c0-.1-.1-.1-.1-.2s-.1-.2-.1-.2c0-.1-.1-.1-.1-.2-.1-.1-.1-.2-.2-.2 0-.1-.1-.1-.1-.2-.1-.1-.1-.2-.2-.2l-.1-.1c-.1-.1-.1-.2-.2-.3l-.1-.1-.3-.3-.1-.1c-.1-.1-.2-.2-.3-.2l-.1-.1-.2-.2-.1-.1c-.3.1-.4.1-.5 0-.1 0-.1-.1-.2-.1l-.2-.2c-.1 0-.1-.1-.2-.1-.1-.1-.2-.1-.2-.1-.1 0-.1-.1-.2-.1s-.2-.1-.2-.1c-.1 0-.1-.1-.2-.1-.1-.1-.2-.1-.3-.1 0 0-.1 0-.1-.1-.1-.1-.3-.1-.4-.2h-.1c-.1-.1-.2-.1-.4-.1-.1 0-.1 0-.2-.1-.1 0-.2-.1-.3-.1-.1 0-.1 0-.2-.1-.1 0-.2-.1-.3-.1h-.2c-.1 0-.2 0-.3-.1h-4.6v-11c0-3.3 2.7-5.9 5.9-5.9h8.7c1.2 0 2.1-.9 2.1-2.1 0-1.2-.9-2.1-2.1-2.1h-8.7C12.5 18 8 22.5 8 28.1V39c-4.4.9-8 5-8 10v27.4c0 1.2.9 2.1 2.1 2.1h91.8c1.2 0 2.1-.9 2.1-2.1V49c0-5-3.6-9.1-8.3-10zM20.9 49.3v25H4.2V49c0-3.3 2.7-5.9 5.9-5.9h4.8c3.3 0 5.9 2.7 5.9 5.9v.3zm4.1 2.1h20.9v4.2H25v-4.2zm0 8.3h46v14.6H25V59.7zm25.1-8.3H71v4.2H50.1v-4.2zm41.7 22.9H75.1V49c0-3.3 2.7-5.9 5.9-5.9h4.8c3.3 0 5.9 2.7 5.9 5.9v25.3zM34.9 18.6c.4.4.6.9.6 1.5 0 .5-.2 1.1-.6 1.5-.4.4-.9.6-1.5.6-.5 0-1.1-.2-1.5-.6-.4-.4-.6-.9-.6-1.5 0-.5.2-1.1.6-1.5.4-.4.9-.6 1.5-.6.5 0 1.1.2 1.5.6zm-5.7 11.9c2.3 0 4.2 1.9 4.2 4.2 0 2.3-1.9 4.2-4.2 4.2S25 37 25 34.7c0-2.3 1.9-4.2 4.2-4.2zm37.6 0c2.3 0 4.2 1.9 4.2 4.2 0 2.3-1.9 4.2-4.2 4.2-2.3 0-4.2-1.9-4.2-4.2 0-2.3 1.9-4.2 4.2-4.2z" /></symbol><symbol viewBox="0 0 96 96" id="ellipsis"><circle class="st0" cx="12" cy="48" r="12" /><circle class="st0" cx="84" cy="48" r="12" /><circle class="st0" cx="48" cy="48" r="12" /></symbol><symbol viewBox="0 0 96 96" id="facebook"><path d="M90.7 0H5.3C2.4 0 0 2.4 0 5.3v85.4C0 93.6 2.4 96 5.3 96h46V58.8H38.8V44.3h12.5V33.6c0-12.4 7.6-19.1 18.6-19.1 5.3 0 9.9.4 11.2.6v13h-7.7c-6 0-7.2 2.9-7.2 7.1v9.2h14.3l-1.9 14.5H66.2V96h24.5c2.9 0 5.3-2.4 5.3-5.3V5.3C96 2.4 93.6 0 90.7 0" /></symbol><symbol viewBox="0 0 24 24" id="garden"><path d="M12 .95a.75.75 0 01.75.75v.776a.75.75 0 01-1.5 0V1.7A.75.75 0 0112 .95zm9.034 7.393a2.573 2.573 0 00-1.054-.149.751.751 0 01-.085.001 3.023 3.023 0 00-2.118.736.75.75 0 11-.983-1.133 4.522 4.522 0 013.127-1.103 4.073 4.073 0 013.055 1.129.75.75 0 11-1.039 1.082 2.574 2.574 0 00-.903-.563z" /><path d="M14.609 8.195a3.023 3.023 0 00-2.118.736.75.75 0 11-.982-1.133 4.522 4.522 0 013.134-1.103 4.523 4.523 0 013.134 1.103.75.75 0 11-.983 1.133 3.023 3.023 0 00-2.117-.736.749.749 0 01-.068 0z" /><path d="M9.323 8.195a3.024 3.024 0 00-2.118.736.75.75 0 11-.982-1.133 4.524 4.524 0 013.134-1.103 4.524 4.524 0 013.134 1.103.75.75 0 11-.982 1.133 3.024 3.024 0 00-2.118-.736.75.75 0 01-.068 0z" /><path d="M4.02 8.194a2.575 2.575 0 00-1.957.712.75.75 0 01-1.04-1.082A4.075 4.075 0 014.08 6.695a4.524 4.524 0 013.126 1.103.75.75 0 01-.982 1.133 3.024 3.024 0 00-2.118-.736.751.751 0 01-.085 0zM12 7.586a.75.75 0 01.75.75V22.03a.75.75 0 01-1.5 0V8.336a.75.75 0 01.75-.75z" /><path d="M2.2 8.605v-.002zm0 0v-.002zm-.7-.269L.8 8.07v-.004l.003-.006.008-.02.026-.063a8.14 8.14 0 01.501-.948A10.35 10.35 0 013.14 4.855C4.862 3.268 7.666 1.726 12 1.726s7.138 1.542 8.86 3.129a10.348 10.348 0 011.802 2.173 8.12 8.12 0 01.5.948l.027.063.008.02.002.006.001.003v.001l-.7.267.7-.267a.75.75 0 01-1.4.536v-.001l-.002-.004a6.638 6.638 0 00-.414-.786 8.853 8.853 0 00-1.54-1.856C18.386 4.614 15.94 3.226 12 3.226c-3.94 0-6.385 1.388-7.845 2.732a8.85 8.85 0 00-1.54 1.856 6.643 6.643 0 00-.398.751 1.856 1.856 0 00-.015.035l-.002.005A.75.75 0 01.8 8.07l.7.267zm14.856 6.266a.75.75 0 01.75-.75h3.428a.75.75 0 110 1.5h-3.428a.75.75 0 01-.75-.75z" /><path d="M21.93 10.05a.75.75 0 01.548.908l-1.787 7.251a.75.75 0 01-1.457-.359l1.788-7.251a.75.75 0 01.908-.549z" /><path d="M15.235 17.854a.75.75 0 01.729-.574h3.999c.3 0 .571.179.69.455l1.712 3.999a.75.75 0 11-1.378.59l-1.519-3.544h-2.913l-.826 3.425a.75.75 0 01-1.458-.352l.964-3.999zM2.716 14.602a.75.75 0 01.75-.75h3.428a.75.75 0 110 1.5H3.466a.75.75 0 01-.75-.75z" /><path d="M2.07 10.05a.75.75 0 01.908.549l1.788 7.251a.75.75 0 01-1.457.36l-1.787-7.252a.75.75 0 01.548-.908z" /><path d="M3.348 17.735a.75.75 0 01.689-.455h3.999a.75.75 0 01.73.574l.963 4a.75.75 0 11-1.458.35l-.826-3.424H4.532l-1.519 3.544a.75.75 0 01-1.378-.59l1.713-4z" /></symbol><symbol viewBox="0 0 24 24" id="heart"><path d="M12 23.07a.8.8 0 01-.4-.11C11.17 22.68 1 16.15 1 9.18a6.25 6.25 0 0111-4.06 6.25 6.25 0 0111 4.06c0 7-10.17 13.5-10.6 13.78a.8.8 0 01-.4.11zM7.25 4.43A4.75 4.75 0 002.5 9.18c0 5.43 7.64 11 9.5 12.24 1.86-1.26 9.5-6.81 9.5-12.24a4.75 4.75 0 00-8.85-2.39.78.78 0 01-1.3 0 4.76 4.76 0 00-4.1-2.36z" /></symbol><symbol viewBox="0 0 96 96" id="home"><path d="M41 2.88a9.85 9.85 0 0114 0l11.74 11.78a3.28 3.28 0 01-4.65 4.64L50.32 7.53a3.28 3.28 0 00-4.64 0L9.57 43.64a3.25 3.25 0 00-1 2.32v40a3.28 3.28 0 003.28 3.28h23v-23a3.28 3.28 0 013.28-3.28h19.7a3.28 3.28 0 013.28 3.28v23h23a3.28 3.28 0 003.28-3.28V46a3.25 3.25 0 00-1-2.32L81.79 39a3.28 3.28 0 014.64-4.65L91.07 39A9.82 9.82 0 0194 46v40a9.85 9.85 0 01-9.85 9.84h-26.3a3.28 3.28 0 01-3.28-3.28v-23H41.43v23a3.28 3.28 0 01-3.28 3.28H11.89A9.85 9.85 0 012 85.92V46a9.82 9.82 0 012.89-7zm33.26 20.66A3.29 3.29 0 1171 26.83a3.29 3.29 0 013.26-3.29z" /></symbol><symbol viewBox="0 0 24 24" id="home-accessories"><path d="M2.75 0A.75.75 0 002 .75V19.5c0 .414.336.75.75.75H11a.75.75 0 000-1.5H3.5v-6.44l2.25-2.25 2.69 2.69-1.72 1.72a.75.75 0 101.06 1.06L11 12.31l1.34 1.342a4.392 4.392 0 00-.307 1.215c-.09.767-.042 1.639.092 2.535l.003.016.002.013a20.86 20.86 0 002.117 5.977A1.005 1.005 0 0015.2 24h3.92a1.006 1.006 0 00.95-.591 19.908 19.908 0 002.088-5.987l.001-.007c.153-.905.2-1.78.11-2.548-.09-.758-.325-1.488-.81-2.02l-.005-.005a11.147 11.147 0 01-.612-.694c-.148-.19-.22-.325-.253-.433-.05-.165-.069-.446.313-1.134A1.025 1.025 0 0020.033 9h-5.77a1.048 1.048 0 00-.902 1.538l.009.017c.4.713.388 1.002.34 1.171-.054.184-.185.376-.471.702L11.53 10.72a.75.75 0 00-1.06 0l-.97.97-3.22-3.22a.75.75 0 00-1.06 0L3.5 10.19V1.5h11v6a.75.75 0 001.5 0V.75a.75.75 0 00-.75-.75H2.75zm12.258 10.5h4.27c-.226.574-.29 1.112-.124 1.654.108.35.296.648.5.912.193.25.43.505.669.763l.029.031c.189.209.355.588.426 1.184.07.585.038 1.309-.098 2.12a18.412 18.412 0 01-1.826 5.336h-3.39a19.358 19.358 0 01-1.857-5.335c-.122-.814-.153-1.537-.084-2.122.07-.598.237-.968.432-1.172l.067-.072c.456-.491.944-1.017 1.128-1.656.157-.54.085-1.074-.142-1.643z" /><path d="M11 3a2.25 2.25 0 100 4.5A2.25 2.25 0 0011 3zm-.75 2.25a.75.75 0 111.5 0 .75.75 0 01-1.5 0z" /></symbol><symbol viewBox="0 0 96 96" id="instagram"><path d="M95.7 28.2c-.2-5.1-1-8.6-2.2-11.7-1.2-3.2-2.9-5.8-5.5-8.5-2.7-2.7-5.3-4.3-8.5-5.5C76.4 1.3 73 .5 67.8.3 62.7 0 61 0 48 0S33.3.1 28.2.3c-5.1.2-8.6 1-11.7 2.2C13.3 3.7 10.7 5.4 8 8c-2.7 2.7-4.3 5.3-5.5 8.5C1.3 19.6.5 23 .3 28.2 0 33.3 0 35 0 48s.1 14.7.3 19.8c.2 5.1 1 8.6 2.2 11.7C3.7 82.7 5.4 85.3 8 88c2.7 2.7 5.3 4.3 8.5 5.5 3.1 1.2 6.5 2 11.7 2.2 5.1.3 6.8.3 19.8.3s14.7-.1 19.8-.3c5.1-.2 8.6-1 11.7-2.2 3.2-1.2 5.8-2.9 8.5-5.5 2.7-2.7 4.3-5.3 5.5-8.5 1.2-3.1 2-6.5 2.2-11.7.3-5.1.3-6.8.3-19.8s-.1-14.7-.3-19.8zM48 72.6c-13.6 0-24.6-11-24.6-24.6 0-13.6 11-24.6 24.6-24.6 13.6 0 24.6 11 24.6 24.6 0 13.6-11 24.6-24.6 24.6zm25.6-44.8c-3 0-5.4-2.4-5.4-5.4s2.4-5.4 5.4-5.4 5.4 2.4 5.4 5.4-2.4 5.4-5.4 5.4z" /><circle cx="48" cy="48" r="16" /></symbol><symbol viewBox="0 0 24 24" id="like"><path d="M12 23.07a.8.8 0 01-.4-.11C11.17 22.68 1 16.15 1 9.18a6.25 6.25 0 0111-4.06 6.25 6.25 0 0111 4.06c0 7-10.17 13.5-10.6 13.78a.8.8 0 01-.4.11zM7.25 4.43A4.75 4.75 0 002.5 9.18c0 5.43 7.64 11 9.5 12.24 1.86-1.26 9.5-6.81 9.5-12.24a4.75 4.75 0 00-8.85-2.39.78.78 0 01-1.3 0 4.76 4.76 0 00-4.1-2.36z" /></symbol><symbol viewBox="0 0 24 24" id="location"><path d="M12 1a8 8 0 00-8 8c0 3.54 4.89 10.56 7 13.41a1.24 1.24 0 002 0c2.11-2.85 7-9.87 7-13.41a8 8 0 00-8-8zm0 20.24C8.82 16.89 5.5 11.48 5.5 9a6.5 6.5 0 1113 0c0 2.48-3.32 7.89-6.5 12.24z" /><path d="M12 5a4 4 0 100 8 4 4 0 000-8zm0 6.5a2.5 2.5 0 110-5 2.5 2.5 0 010 5z" /></symbol><symbol viewBox="0 0 96 23" id="logo"><path fill="#fff" d="M0 0h48.507v23H0V0z" /><path d="M48.5 0H96v23H48.5V0z" fill="#e20015" /><path d="M95.325 0H0v23h96V0h-.675zm0 22.325H.675V.675h94.65v21.65z" /><path fill="#fff" d="M71.311 18.162h-3.013v-1.03c-.801 1.285-7.05 2.61-7.05-3.055v-6.16h3.13v5.942c0 2.478 3.803 2.509 3.803-.454V7.917h3.13v10.245zm2.513-4.096c0 4.222 3.381 4.373 5.697 4.102v-2.58c-1.017 0-2.567.185-2.567-1.264v-3.841h2.567V7.917h-2.567V4.788h-3.13v9.278zm8.104 2.269v1.827h8.658v-2.566H85.79l4.732-5.851.003-1.828h-8.616v2.567h4.839l-4.82 5.851z" /><path d="M13.565 18.162l-2.58-4.23-2.58 4.23H4.608l4.318-6.787-4.17-6.586h3.77l2.46 4.03 2.46-4.03h3.77l-4.17 6.586 4.318 6.787h-3.799zm32.515 0l-4.318-6.787 4.17-6.586h-3.77l-2.46 4.03-2.46-4.03h-3.77l4.17 6.586-4.318 6.787h3.797l2.58-4.23 2.58 4.23h3.799zm-14.318 0l-4.318-6.787 4.17-6.586h-3.77l-2.46 4.03-2.46-4.03h-3.77l4.17 6.586-4.318 6.787h3.797l2.58-4.23 2.58 4.23h3.799zm27.443-3.048H54.74V4.812h-3.284v13.35h7.749v-3.048z" fill="#00151d" /></symbol><symbol viewBox="0 0 96 96" id="percent-badge"><path d="M86.53 57.78l2.93 5.32c.27.4.27.93.13 1.33-.13.4-.53.67-.93.93l-5.59 2c-2.93 1.06-5.06 4.26-5.06 7.32l.13 5.99c0 .53-.13.8-.4 1.2-.27.27-.8.53-1.33.4l-5.99-.8c-3.06-.4-6.52 1.46-7.85 4.13l-2.66 5.32c-.4.93-1.46 1.2-2.26.53l-4.92-3.46c-1.2-.8-2.79-1.33-4.39-1.33-1.6 0-3.19.53-4.39 1.33l-4.92 3.46c-.8.53-1.73.4-2.26-.53l-2.66-5.32c-1.33-2.66-4.79-4.53-7.85-4.13l-5.99.8c-.53.13-1.06 0-1.33-.4-.27-.27-.4-.67-.4-1.2l.13-5.99c0-3.06-2.13-6.26-5.06-7.32l-5.59-2c-.53-.13-.8-.53-.93-.93s-.13-.8.13-1.33l2.93-5.32c1.46-2.66.93-6.52-1.06-8.78L5.1 44.61c-.4-.4-.53-.8-.4-1.2 0-.4.27-.8.67-1.06l5.06-3.33c2.53-1.73 3.86-5.32 3.19-8.25l-1.46-5.86c-.13-.53 0-.93.13-1.33.27-.4.67-.53 1.2-.67l5.99-.67c3.06-.27 5.99-2.93 6.65-5.86l1.33-5.86c.27-.93 1.06-1.46 2-1.06l5.59 2.26c.8.27 1.73.53 2.66.53 2.26 0 4.66-.93 5.99-2.66l3.86-4.53c.67-.8 1.6-.8 2.26 0l3.86 4.53c1.33 1.6 3.73 2.66 5.99 2.66.93 0 1.86-.13 2.66-.53l5.59-2.26c.93-.4 1.86.13 2 1.06l1.33 5.86c.67 2.93 3.59 5.59 6.65 5.86l5.99.67c.53 0 .93.27 1.2.67.27.4.27.8.13 1.33l-1.6 5.86c-.8 2.93.67 6.52 3.19 8.25l5.06 3.33c.4.27.67.67.67 1.06 0 .4-.13.8-.4 1.2L88.13 49c-2.66 2.26-3.06 6.12-1.6 8.78m7.99-10.65c1.06-1.2 1.6-2.79 1.46-4.26-.13-1.6-1.06-2.93-2.4-3.86l-5.06-3.33c-1.2-.8-1.86-2.66-1.6-3.99l1.6-5.86c.4-1.6.13-3.19-.8-4.53s-2.26-2.13-3.99-2.26l-5.99-.67c-1.33-.13-2.93-1.46-3.19-2.93L73.22 9.6c-.53-2.53-2.66-4.26-5.19-4.26-.67 0-1.46.13-2.13.4L60.31 8c-.4.13-.8.27-1.2.27-1.2 0-2.4-.53-3.06-1.2l-3.86-4.53c-1.06-1.2-2.53-2-4.13-2s-3.06.67-4.13 2l-3.86 4.53c-.67.8-1.86 1.2-3.06 1.2-.4 0-.8-.13-1.2-.27l-5.59-2.26c-.67-.27-1.33-.4-2.13-.4-2.53 0-4.66 1.73-5.19 4.26l-1.33 5.86c-.27 1.33-1.86 2.66-3.19 2.93l-5.99.67c-1.6.13-3.06 1.06-3.99 2.26-.93 1.33-1.2 2.93-.8 4.53l1.46 5.86c.4 1.33-.4 3.33-1.6 3.99L2.4 39.03c-1.33.93-2.26 2.26-2.4 3.86-.13 1.6.4 3.06 1.46 4.26l3.99 4.39c.93 1.06 1.2 3.06.53 4.26l-2.93 5.32c-.8 1.46-.93 3.06-.4 4.53.53 1.46 1.73 2.66 3.33 3.19l5.59 2c1.33.53 2.53 2.13 2.4 3.59l-.13 5.99c0 1.46.53 2.93 1.6 3.99 1.2 1.2 2.79 1.73 4.66 1.46l5.99-.8c1.46-.13 3.19.8 3.86 2l2.66 5.32c.93 1.86 2.79 3.06 4.79 3.06 1.2 0 2.26-.4 3.19-1.06l4.92-3.46c1.06-.8 3.19-.8 4.26 0l4.92 3.46c.93.67 2.13 1.06 3.19 1.06 2 0 3.86-1.2 4.79-3.06l2.66-5.32c.67-1.2 2.4-2.26 3.86-2l5.99.8c1.86.27 3.46-.27 4.66-1.46 1.06-1.06 1.6-2.4 1.46-3.99l-.13-5.99c0-1.33 1.2-3.06 2.4-3.59l5.59-2c1.6-.53 2.79-1.73 3.33-3.19s.4-3.06-.4-4.53l-2.93-5.32c-.67-1.2-.4-3.33.53-4.26l4.83-4.41zm-35.01 20.1c-2.79 0-5.19-2.26-5.19-5.19 0-2.79 2.26-5.19 5.19-5.19 2.79 0 5.19 2.26 5.19 5.19-.13 2.93-2.39 5.19-5.19 5.19m0-14.11c-4.92 0-9.05 3.99-9.05 9.05 0 4.92 4.13 9.05 9.05 9.05 4.92 0 9.05-4.13 9.05-9.05 0-5.05-4.12-9.05-9.05-9.05M36.89 28.77c2.79 0 5.19 2.26 5.19 5.19 0 2.79-2.26 5.19-5.19 5.19-2.79 0-5.19-2.26-5.19-5.19 0-2.8 2.26-5.19 5.19-5.19m0 14.24c4.92 0 9.05-4.13 9.05-9.05 0-4.92-3.99-9.05-9.05-9.05s-9.05 4.13-9.05 9.05c0 5.06 3.99 9.05 9.05 9.05m25.28-16.5L30.5 67.9l3.06 2.4 31.68-41.4-3.07-2.39z" /></symbol><symbol viewBox="0 0 96 96" id="pinterest"><path d="M90 0H6a6 6 0 00-6 6v84a6 6 0 006 6h84a6 6 0 006-6V6a6 6 0 00-6-6zM53.14 74.64c-4.81 0-9.36-2.5-10.89-5.47l-3 11.29c-1.06 4.14-4 9.3-5.94 12.46a15.18 15.18 0 01-3.13-1.24c-.43-3.75-.79-9.53.15-13.63.86-3.7 5.57-23.62 5.57-23.62a17.19 17.19 0 01-1.41-7c0-6.6 3.83-11.52 8.61-11.52 4.07 0 6 3 6 6.68 0 4.06-2.59 10.15-4 15.83-1.14 4.74 2.34 8.61 7 8.61 8.45 0 14.94-8.91 14.94-21.72C67.18 33.91 59 26 47.3 26c-13.54 0-21.49 10.09-21.49 20.56a18.57 18.57 0 003.53 10.84 1.43 1.43 0 01.32 1.37c-.36 1.48-1.18 4.73-1.33 5.39-.19.86-.7 1.06-1.6.63-5.94-2.78-9.67-11.42-9.67-18.4 0-15 10.89-28.7 31.42-28.7 16.52 0 29.31 11.71 29.31 27.42 0 16.37-10.33 29.53-24.65 29.53z" fill-rule="evenodd" /></symbol><symbol viewBox="0 0 24 24" id="reserve"><path d="M12 0a12 12 0 100 24 12 12 0 000-24zm0 22.5A10.5 10.5 0 1122.5 12 10.51 10.51 0 0112 22.5z" /><path d="M16 8.85l-3.25 1.85V4a.75.75 0 10-1.5 0v8a.8.8 0 000 .15.34.34 0 00.05.14v.05a.902.902 0 00.2.19l.07.05a.821.821 0 00.34.09.75.75 0 00.34-.09l4.33-2.5a.76.76 0 00.27-1 .75.75 0 00-.85-.23z" /></symbol><symbol viewBox="0 0 96 96" id="restaurant"><path d="M25.423 59.381c.65 0 1.289-.264 1.749-.724.46-.46.725-1.098.725-1.75a2.5 2.5 0 00-.725-1.75 2.494 2.494 0 00-1.75-.724c-.65 0-1.289.265-1.749.725a2.496 2.496 0 00-.725 1.75c0 .65.265 1.289.725 1.749.46.46 1.1.724 1.75.724z" /><path d="M22.75 2.375V24.36a3.368 3.368 0 003.362 3.364h1.389V2.375a2.375 2.375 0 014.75 0v25.35h1.39a3.367 3.367 0 003.361-3.364V2.375a2.375 2.375 0 014.75 0V24.36c0 3.274-1.95 6.1-4.75 7.38v57.135c0 3.928-3.196 7.124-7.126 7.124s-7.125-3.196-7.125-7.124V67.26a2.375 2.375 0 014.75 0v21.616a2.377 2.377 0 002.375 2.374 2.377 2.377 0 002.376-2.374V32.474H27.5v14.128a2.375 2.375 0 01-4.75 0v-14.86C19.95 30.46 18 27.634 18 24.361V2.374a2.375 2.375 0 014.75 0zM64.657 96c-3.898 0-7.07-3.198-7.07-7.129V71.047a2.367 2.367 0 012.357-2.377 2.367 2.367 0 012.356 2.377V88.87a2.369 2.369 0 002.357 2.377c1.3 0 2.356-1.066 2.356-2.377V52.515c0-.63.249-1.235.69-1.68a2.346 2.346 0 011.667-.696h3.299V39.09c0-11.177-3.645-21.788-10.369-30.455v66.926a2.366 2.366 0 01-2.356 2.376 2.366 2.366 0 01-2.356-2.376V2.376c0-.96.574-1.828 1.454-2.195a2.343 2.343 0 012.568.515 54.068 54.068 0 0111.673 17.616 54.423 54.423 0 014.098 20.78v13.423c0 .63-.248 1.234-.69 1.68a2.346 2.346 0 01-1.666.696h-3.299v33.98c0 3.931-3.171 7.129-7.07 7.129z" /></symbol><symbol viewBox="0 0 96 96" id="search"><path d="M66.7 72.8c-7 5.7-15.9 9-25.6 9C18.6 81.8.4 63.6.4 41.1S18.6.4 41.1.4s40.7 18.2 40.7 40.7c0 9.7-3.4 18.6-9 25.6.2.1.3.3.5.4L95.1 89c1.7 1.7 1.7 4.5 0 6.2s-4.5 1.7-6.2 0L67.1 73.3c-.1-.2-.3-.3-.4-.5zm-25.6.3c17.7 0 32-14.3 32-32s-14.3-32-32-32-32 14.3-32 32 14.4 32 32 32z" /></symbol><symbol viewBox="0 0 24 24" id="speech-bubble-full"><path d="M21.5 7l.144.007A1.5 1.5 0 0123 8.5v9l-.007.144A1.5 1.5 0 0121.5 19h-2v2.5l-.007.086a.5.5 0 01-.74.349L13.585 19H8.5l-.144-.007A1.5 1.5 0 017 17.5V17l.008-.09A.5.5 0 018 17v.5l.008.09A.5.5 0 008.5 18h5.215l.086.007a.5.5 0 01.16.058l4.539 2.576V18.5l.008-.09A.5.5 0 0119 18h2.5l.09-.008A.5.5 0 0022 17.5v-9l-.008-.09A.5.5 0 0021.5 8h-3l-.09-.008A.5.5 0 0118.5 7h3zm-8-5a.5.5 0 01.09.992L13.5 3h-11a.5.5 0 00-.492.41L2 3.5v9a.5.5 0 00.41.492L2.5 13h2.23a.5.5 0 01.492.41l.008.09v1.239l3.941-1.698.198-.041H14.5a.5.5 0 00.492-.41L15 12.5v-8a.5.5 0 01.992-.09L16 4.5v8a1.5 1.5 0 01-1.356 1.493L14.5 14H9.471l-4.542 1.96a.5.5 0 01-.692-.38l-.006-.08L4.23 14H2.5a1.5 1.5 0 01-1.493-1.356L1 12.5v-9a1.5 1.5 0 011.356-1.493L2.5 2h11zm2 0a.5.5 0 110 1 .5.5 0 010-1z" /></symbol><symbol viewBox="0 0 96 96" id="x"><path d="M48.09 36.08C59.53 24.855 71.012 13.67 82.343 2.34a9.45 9.45 0 011.16-.96C84.635.61 85.9.201 87.247.03 87.75 0 87.745 0 88.251 0c1.186.074 2.316.326 3.381.868a8.065 8.065 0 014.332 6.375c.08.835.027 1.68-.157 2.498-.298 1.336-.94 2.498-1.806 3.545-11.116 11.838-22.545 23.373-34.085 34.8 11.225 11.44 22.41 22.922 33.741 34.253.813.866 1.466 1.823 1.87 2.948a8.023 8.023 0 010 5.419 8.02 8.02 0 01-1.206 2.193 8.063 8.063 0 01-7.074 3.062 8.026 8.026 0 01-3.32-1.08 9.49 9.49 0 01-1.217-.884c-11.838-11.116-23.373-22.545-34.8-34.085-11.44 11.225-22.922 22.41-34.253 33.741-.866.813-1.823 1.466-2.947 1.87a8.029 8.029 0 01-2.961.47 8.064 8.064 0 01-6.635-3.925 7.994 7.994 0 01-1.079-4.825 8.021 8.021 0 011.079-3.319 9.53 9.53 0 01.885-1.218c11.116-11.838 22.544-23.373 34.085-34.8-11.225-11.44-22.41-22.922-33.74-34.253-.931-.99-1.645-2.111-2.026-3.425a8.066 8.066 0 012.025-7.889A8.01 8.01 0 014.368.868C5.433.326 6.563.074 7.748 0c.503 0 .5 0 1.005.031.502.064.991.141 1.479.283 1.147.333 2.143.924 3.058 1.681C25.128 13.111 36.663 24.54 48.09 36.08z" /></symbol><symbol viewBox="0 0 96 96" id="youtube"><path d="M0 44.07c0-7.764.96-15.54.96-15.54s.936-6.6 3.816-9.522c3.648-3.822 8.448-3.702 10.584-4.104 7.68-.744 32.64-.96 32.64-.96s20.172.024 33.6.996c1.884.228 5.976.24 9.624 4.068 2.88 2.916 3.816 9.528 3.816 9.528S96 36.3 96 44.076v7.548c0 7.776-.96 15.54-.96 15.54s-.936 6.612-3.816 9.528c-3.648 3.828-7.74 3.84-9.624 4.068-13.428.972-33.6.996-33.6.996s-24.96-.222-32.64-.96c-2.136-.402-6.936-.282-10.584-4.104C1.896 73.77.96 67.17.96 67.17S0 59.4 0 51.63v-7.56zm38.088 16.38V33.48l25.938 13.53-25.92 13.44h-.018z" fill-rule="evenodd" /></symbol></defs><use id="arrow-left-usage" xlink:href="#arrow-left" class="sprite-symbol-usage" /><use id="arrow-right-usage" xlink:href="#arrow-right" class="sprite-symbol-usage" /><use id="arrow-up-usage" xlink:href="#arrow-up" class="sprite-symbol-usage" /><use id="barbecue-usage" xlink:href="#barbecue" class="sprite-symbol-usage" /><use id="bassinet-usage" xlink:href="#bassinet" class="sprite-symbol-usage" /><use id="bullet-usage" xlink:href="#bullet" class="sprite-symbol-usage" /><use id="cart-usage" xlink:href="#cart" class="sprite-symbol-usage" /><use id="chevron-down-usage" xlink:href="#chevron-down" class="sprite-symbol-usage" /><use id="chevron-left-usage" xlink:href="#chevron-left" class="sprite-symbol-usage" /><use id="chevron-right-usage" xlink:href="#chevron-right" class="sprite-symbol-usage" /><use id="chevron-up-usage" xlink:href="#chevron-up" class="sprite-symbol-usage" /><use id="circle-plus-usage" xlink:href="#circle-plus" class="sprite-symbol-usage" /><use id="color-usage" xlink:href="#color" class="sprite-symbol-usage" /><use id="couch-usage" xlink:href="#couch" class="sprite-symbol-usage" /><use id="ellipsis-usage" xlink:href="#ellipsis" class="sprite-symbol-usage" /><use id="facebook-usage" xlink:href="#facebook" class="sprite-symbol-usage" /><use id="garden-usage" xlink:href="#garden" class="sprite-symbol-usage" /><use id="heart-usage" xlink:href="#heart" class="sprite-symbol-usage" /><use id="home-usage" xlink:href="#home" class="sprite-symbol-usage" /><use id="home-accessories-usage" xlink:href="#home-accessories" class="sprite-symbol-usage" /><use id="instagram-usage" xlink:href="#instagram" class="sprite-symbol-usage" /><use id="like-usage" xlink:href="#like" class="sprite-symbol-usage" /><use id="location-usage" xlink:href="#location" class="sprite-symbol-usage" /><use id="logo-usage" xlink:href="#logo" class="sprite-symbol-usage" /><use id="percent-badge-usage" xlink:href="#percent-badge" class="sprite-symbol-usage" /><use id="pinterest-usage" xlink:href="#pinterest" class="sprite-symbol-usage" /><use id="reserve-usage" xlink:href="#reserve" class="sprite-symbol-usage" /><use id="restaurant-usage" xlink:href="#restaurant" class="sprite-symbol-usage" /><use id="search-usage" xlink:href="#search" class="sprite-symbol-usage" /><use id="speech-bubble-full-usage" xlink:href="#speech-bubble-full" class="sprite-symbol-usage" /><use id="x-usage" xlink:href="#x" class="sprite-symbol-usage" /><use id="youtube-usage" xlink:href="#youtube" class="sprite-symbol-usage" /></svg>